<svg xmlns="http://www.w3.org/2000/svg" width="181" height="180" fill="none"><path fill="#F83207" fill-rule="evenodd" d="M121.3 27a35.5 35.5 0 0 0-35.6 39.5L121.3 27Zm-29.5 9.3c8.8-9.8 21.4-14.1 33.6-12.7l3.5.4-2.3 2.6-28.7 31.8a39.2 39.2 0 0 1 47.9 13.1l2 3H92.5v27.9l14.2-14.2.5-.5h.8l23.4-.1h.8l.6.7 20.3 24 .4.4v.7l.3 49.5h10.3v3.7H25.4v-3.7h48.7V83l-35 35-2.5 2.6-.6-3.5a38.8 38.8 0 0 1 23.2-42.6H17l2.1-2.9a39.2 39.2 0 0 1 45.4-14l-28-27.8-2.5-2.5 3.5-.6a39.2 39.2 0 0 1 44.8 29.3c1.1-7 4.3-14 9.5-19.6Zm-3 69.7V74.4h-6.2l-.6.6-4.2 4.2v83.7h4.3v-50.3l.6-.5 6.1-6ZM24.4 70.8h53.3a35.5 35.5 0 0 0-53.3 0ZM150 162.9l-.3-47.7h-23.4V163h23.7Zm-27.3 0v-47.7h-37V163h37Zm-15-70.5-19.4 19.2h32.7l-13.4-19.2Zm40 19.2-17.3-20.3h-19l14 20.3h22.2ZM92.8 128v-6.5h3.7v6.5h-3.7Zm9.2-6.5v6.5h3.7v-6.5h-3.7Zm9.3 6.5v-6.5h3.6v6.5h-3.6Zm-18.5 3.6v6.5h3.7v-6.5h-3.7Zm9.2 6.5v-6.5h3.7v6.5h-3.7Zm9.3-6.5v6.5h3.6v-6.5h-3.6Zm-18.5 16.6v-6.5h3.7v6.5h-3.7Zm9.2-6.5v6.5h3.7v-6.5h-3.7Zm9.3 6.5v-6.5h3.6v6.5h-3.6ZM92.9 151v6.5h3.7v-6.5h-3.7Zm9.2 6.5v-6.5h3.7v6.5h-3.7Zm9.3-6.5v6.5h3.6v-6.5h-3.6Zm29-80.1H87.3a35.5 35.5 0 0 1 53.3 0Zm-60.8-3.6L41.8 29.8a35.5 35.5 0 0 1 37.8 37.4ZM76.7 75a35.5 35.5 0 0 0-37.6 37.6l37.6-37.6Z" clip-rule="evenodd"/></svg>
