
<svg width="181" height="180" viewBox="0 0 181 180" fill="none" xmlns="http://www.w3.org/2000/svg">
  <path fill-rule="evenodd" clip-rule="evenodd" d="M24.3774 51.2925L26.345 51.433L58.0942 53.7008L58.2537 53.7122L58.4089 53.751L103.765 65.09L105.156 65.4378V66.8719V79.313L129.271 56.4672L130.627 55.183L131.888 56.5594L156.834 83.773L157.317 84.2997V85.0141V164.387V166.224H155.48H132.371H130.534H103.319V166.224H87.4448H60.2312H57.9634H48.255V166.224L44.5815 166.224V166.224H39.0713V166.224L35.3978 166.224V166.224H26.2142H24.3774V164.387V53.2651V51.2925ZM48.255 162.551L48.255 62.4488H44.5815L44.5815 162.551H39.0713L39.0713 62.4488H35.3979L35.3978 162.551H28.0509V55.2377L56.1266 57.2431V162.551H48.255ZM101.483 68.306V82.7931L86.1829 97.2876L85.6094 97.8309V98.6209V162.551H60.2312H59.8001V57.8853L101.483 68.306ZM153.643 162.55H132.371V62.5224L153.643 85.7286V162.55ZM128.698 162.55V62.0707L89.2829 99.411V162.55H128.698ZM139.605 89.1187H146.408V85.4453H139.605V89.1187ZM139.605 111.797H146.408V108.123H139.605V111.797ZM146.408 123.136H139.605V119.462H146.408V123.136ZM139.605 134.475H146.408V130.801H139.605V134.475ZM146.408 145.814H139.605V142.14H146.408V145.814ZM139.605 157.153H146.408V153.479H139.605V157.153ZM146.408 100.458H139.605V96.7844H146.408V100.458Z" fill="#F83207"/>
</svg>
