<svg xmlns="http://www.w3.org/2000/svg" xmlns:xlink="http://www.w3.org/1999/xlink" width="19" height="19" fill="none" xmlns:v="https://vecta.io/nano"><g clip-path="url(#A)"><rect width="18.6" height="18.6" rx="9.3" fill="#0923a7" fill-opacity="0"/><g fill="#fdfdfd"><path d="M3.361 13.797c-1.548 3.204-8.747 7.758-9.233 11.088-.53 3.627 5.499 4.194 5.499 4.194S-1 25.149 4.55 24.822c2.466-.146 5.407-1.922 5.678-4.418a21.57 21.57 0 0 0 .119-3.235c-2.683-.387-5.227-2.553-6.985-3.371h-.001z"/><path d="M6.625 29.73l.002-1.321-.152-6.039c-.057-.51 4.034-4.002 3.776-1.959-.333 2.635-1.215 5.927-1.79 7.794-.242.785.229.656.104 1.527l-1.939-.003h-.001zm2.563-19.19c1.511.817 3.053.137 4.397.742 1.332.6 1.289 2.284.619 2.393-1.746.285-1.618-1.664-2.393-1.779-1.151-.172-2.387-1.126-2.623-1.356z"/><path d="M4.356 6.167c.009-.41.33-.75.753-.8 2.134-.25 5.753-.112 6.272.078.372.136.558.563.962 1.143.301.433.783.662 1.324.661l1.95-.059c.13-.009.132 1.882-.599 2.343-1.477.934-4.335.829-7.028-.175.935 1.337 2.634 2.178 4.712 2.393.18.018.213.255.046.322-1.177.473-2.85.374-2.85.374a23.03 23.03 0 0 1 .541 5.011c-4.085-.577-6.949-3.652-7.128-3.872.938-1.45 1.008-5.697 1.047-7.422l-.001.002z"/><use xlink:href="#B"/><path d="M7.104 4.26c.479-.108 1.079-.375.378-.696-.307-.14-1.003-.34-1.335-.431-1.352-.369-1.834 2.47-1.777 3.07 0 0 2.508.131 3.465-.157-.343-.558-.732-1.786-.732-1.786z"/></g><g fill="#f83207"><path d="M11.122 14.068l-7.246-2.467c-.092-.031-.193.015-.225.103l-.493 1.341c-.032.088.016.185.108.217l7.246 2.467c.092.031.193-.015.225-.104l.493-1.341c.033-.088-.016-.186-.107-.217z"/><path d="M11.884 16.847c.139.481-.129.971-.595 1.095s-.958-.164-1.097-.644.213-1.32.508-1.398 1.045.467 1.183.947z"/></g></g><defs><clipPath id="A"><rect width="18.6" height="18.6" rx="9.3" fill="#000"/></clipPath><path id="B" d="M11.254 4.26c.479-.108 1.079-.375.378-.696-.307-.14-1.003-.34-1.335-.431-1.352-.369-1.834 2.47-1.777 3.07 0 0 2.508.131 3.465-.157-.343-.558-.732-1.786-.732-1.786z"/></defs></svg>
