<svg xmlns="http://www.w3.org/2000/svg" width="19" height="19" fill="none"><g clip-path="url(#a)"><rect width="18.6" height="18.6" fill="#0923A7" rx="9.3"/><g fill="#FDFDFD"><path d="M3.361 13.797c-1.548 3.205-8.746 7.758-9.232 11.088-.53 3.627 5.498 4.194 5.498 4.194S-1 25.149 4.55 24.822c2.466-.146 5.406-1.922 5.678-4.418.127-1.163.152-1.977.12-3.235-2.684-.387-5.227-2.553-6.986-3.372Z"/><path d="M6.625 29.73s.003-.534.002-1.32c-.002-1.79-.025-4.895-.152-6.04-.056-.51 4.034-4.002 3.776-1.959-.334 2.636-1.215 5.927-1.79 7.795-.242.785.23.656.104 1.527l-1.94-.003Z"/></g><path fill="#FDFDFD" d="M9.188 10.54c1.51.816 3.052.137 4.396.741 1.332.6 1.29 2.284.62 2.394-1.746.285-1.619-1.664-2.394-1.78-1.15-.171-2.386-1.125-2.623-1.355Z"/><g fill="#FDFDFD"><path d="M4.356 6.167c.01-.41.33-.75.753-.8 2.134-.251 5.753-.113 6.272.077.372.136.558.563.962 1.143.301.433.783.662 1.324.661.644 0 1.466-.028 1.95-.059.13-.008.132 1.882-.599 2.343-1.477.934-4.335.83-7.028-.175.936 1.337 2.634 2.179 4.712 2.394.18.018.213.255.046.322-1.178.473-2.85.374-2.85.374.277 1.302.54 2.889.54 5.012-4.084-.577-6.948-3.653-7.127-3.873.938-1.45 1.007-5.697 1.046-7.421v.002Z"/><path d="M11.254 4.26c.479-.109 1.079-.375.378-.696-.307-.14-1.003-.34-1.335-.43-1.352-.37-1.835 2.47-1.777 3.069 0 0 2.509.13 3.466-.157-.343-.558-.732-1.786-.732-1.786ZM7.104 4.26c.478-.109 1.078-.375.377-.696-.307-.14-1.003-.34-1.335-.43-1.351-.37-1.834 2.47-1.776 3.069 0 0 2.508.13 3.465-.157-.343-.558-.731-1.786-.731-1.786Z"/></g><path fill="#F83207" d="m11.123 14.068-7.246-2.467a.178.178 0 0 0-.225.104l-.493 1.34a.168.168 0 0 0 .108.217l7.246 2.467a.178.178 0 0 0 .225-.103l.493-1.341a.168.168 0 0 0-.108-.217ZM11.885 16.847c.139.481-.128.971-.595 1.095-.468.125-.958-.164-1.097-.644-.138-.48.214-1.32.509-1.398.295-.079 1.044.467 1.183.947Z"/></g><defs><clipPath id="a"><rect width="18.6" height="18.6" fill="#000" rx="9.3"/></clipPath></defs></svg>
