<svg width="20" height="20" viewBox="0 0 20 20" fill="none" xmlns="http://www.w3.org/2000/svg">
<path d="M10.118 13.3333L1.66797 13.3333L1.66797 15L10.118 15C10.493 16.4333 11.7846 17.5 13.3346 17.5C14.8846 17.5 16.1763 16.4333 16.5513 15L18.3346 15L18.3346 13.3333L16.5513 13.3333C16.1763 11.9 14.8846 10.8333 13.3346 10.8333C11.7846 10.8333 10.493 11.9 10.118 13.3333ZM11.668 14.1667C11.668 13.25 12.418 12.5 13.3346 12.5C14.2513 12.5 15.0013 13.25 15.0013 14.1667C15.0013 15.0833 14.2513 15.8333 13.3346 15.8333C12.418 15.8333 11.668 15.0833 11.668 14.1667ZM1.66797 5L1.66797 6.66667L3.4513 6.66667C3.8263 8.1 5.11797 9.16667 6.66797 9.16667C8.21797 9.16667 9.50964 8.1 9.88464 6.66667L18.3346 6.66667L18.3346 5L9.88464 5C9.50963 3.56667 8.21797 2.5 6.66797 2.5C5.11797 2.5 3.8263 3.56667 3.4513 5L1.66797 5ZM5.0013 5.83333C5.0013 4.91667 5.7513 4.16667 6.66797 4.16667C7.58464 4.16667 8.33464 4.91667 8.33464 5.83333C8.33464 6.75 7.58464 7.5 6.66797 7.5C5.7513 7.5 5.0013 6.75 5.0013 5.83333Z" fill="#000"/>
</svg>
