<svg xmlns="http://www.w3.org/2000/svg" width="197" height="196" fill="none"><path fill="#F83207" fill-rule="evenodd" d="M149.1 19H42.5L17.5 39v141.6h162.8L180 39l-30.8-20ZM55.8 176.7h15.6V42.1H21.5v134.6h13.1v-26.3h21.2v26.3ZM25.2 38.1H71L59.4 23H43.9L25.2 38ZM64.4 23 76 38h95.2l-23.3-15H64.4Zm111.5 19H75.4v134.7h101l-.5-134.6ZM38.6 154.5v22.3h13.2v-22.3H38.6ZM89 54.2h15V69H89V54.2Zm4 4V65h7v-6.8h-7Zm38.5-4h-15V69h15V54.2Zm-11 10.8v-6.8h7V65h-7Zm23.6-10.8h15V69h-15V54.2Zm4 4V65h7v-6.8h-7Zm-44.1 20H89v14.7h15V78ZM93 88.8V82h7V89h-7ZM116.5 78h15V93h-15V78Zm4 4V89h7V82h-7Zm38.6-4h-15V93h15V78Zm-11 10.8V82h7V89h-7ZM89 102h15v14.8H89V102Zm4 4v6.8h7V106h-7Zm38.5-4h-15v14.8h15V102Zm-11 10.8V106h7v6.8h-7Zm23.6-10.8h15v14.8h-15V102Zm4 4v6.8h7V106h-7ZM104 126H89v14.7h15v-14.8Zm-11 10.7v-6.8h7v6.8h-7Zm23.5-10.8h15v14.8h-15v-14.8Zm4 4v6.8h7v-6.8h-7Zm38.6-4h-15v14.8h15v-14.8Zm-11 10.8v-6.8h7v6.8h-7ZM89 149.8h15v14.8H89v-14.8Zm4 4v6.8h7v-6.8h-7Zm38.5-4h-15v14.8h15v-14.8Zm-11 10.8v-6.8h7v6.8h-7Zm23.6-10.8h15v14.8h-15v-14.8Zm4 4v6.8h7v-6.8h-7Z" clip-rule="evenodd"/></svg>
