<svg xmlns="http://www.w3.org/2000/svg" width="181" height="180" fill="none"><g clip-path="url(#a)"><path fill="#F83207" fill-rule="evenodd" d="m124.2 46.8 27 32.3.5 87.2H29V79l31.9-32 63.3-.2Zm-62.8 4.8L35.2 78h44.3L61.4 51.6Zm19.8 30v81H32.6v-81h48.6Zm3.6 81v-81h62.8l.4 81h-19.2v-26.3h-20.3v26.3H84.8Zm40.3 0V140h-13v22.6h13Zm20.4-84.7H84L65 50.6h57.4l23 27.3Zm-5.7 22.6h-16.7V97h16.7v3.6Zm-90.3 8c-1.2 0-2.2 1-2.2 2v14h19v-14c0-1-1-2-2.3-2H49.5Zm-5.9 2c0-3.2 2.7-5.7 6-5.7H64c3.2 0 6 2.5 6 5.8v17.6H43.5v-17.6Zm96.2 1H129v-3.8h10.8v3.7Zm0 9.8H134v-3.7h6v3.7Z" clip-rule="evenodd"/></g><defs><clipPath id="a"><path fill="#fff" d="M.5 0h180v180H.5z"/></clipPath></defs></svg>
