
<svg width="181" height="180" viewBox="0 0 181 180" fill="none" xmlns="http://www.w3.org/2000/svg">
  <path fill-rule="evenodd" clip-rule="evenodd" d="M59.8469 28.3843L48.66 19.9941L31.9675 25.5583V37.1483H0.5V55.3453H31.9675V148.495H24.7058V166.692H53.7528H57.4263H67.1086V148.495H59.9194V55.3453H123.95V71.0818L114.283 71.1146L112.99 71.6526L89.395 95.2479L90.6937 98.3834H157.255L158.659 95.3625L138.691 71.6891L137.281 71.0366L127.623 71.0694V55.3453H142.147V37.1483H76.8377L76.8213 37.1157L76.7566 37.1483H59.8469V28.3843ZM69.4558 40.8218H50.1645V50.5285L69.4558 40.8218ZM56.065 51.6719L75.5384 51.6719V41.8735L56.065 51.6719ZM56.246 120.364V148.495H53.7528H50.1645V120.364H56.246ZM56.246 86.813V116.69H50.1645V86.813H56.246ZM56.246 55.3453V83.1395H50.1645V55.3453H56.246ZM56.1734 37.1483V30.2211L50.1645 25.7144V37.1483H56.1734ZM46.4911 37.1483V24.5893L35.641 28.206V37.1483H46.4911ZM35.641 40.8218V51.6719H46.4911V40.8218H35.641ZM46.4911 61.8712L36.6749 83.1395H46.4911V61.8712ZM46.4911 86.813H36.6749L46.4911 108.081V86.813ZM46.4911 127.227L36.6749 148.495L46.4911 148.495V127.227ZM35.641 141.97L45.6129 120.364H35.641V141.97ZM35.641 116.69H46.4186L35.641 93.3388V116.69ZM35.641 76.6136L45.4571 55.3453H35.641V76.6136ZM31.9675 50.6379V40.8218H10.6993L31.9675 50.6379ZM53.7529 152.169V163.019H28.3793V152.169H33.8043H48.3278H53.7529ZM63.4351 163.019H57.4262V152.169H63.4351V163.019ZM4.17347 41.8557V51.6719L25.4418 51.6719L4.17347 41.8557ZM85.7377 40.8218L107.006 50.6379V40.8218H85.7377ZM110.679 40.8218V50.6379L131.948 40.8218H110.679ZM138.474 41.8557L117.205 51.6719H138.474V41.8557ZM100.48 51.6719L79.2119 41.8557V51.6719H100.48ZM92.2318 115.949H128.49V163.019H92.2318V115.949ZM132.163 115.949V163.019H155.407L155.13 115.949H132.163ZM88.5583 112.275H158.782L159.102 166.692H88.5583V112.275ZM99.15 122.135V128.552H102.824V122.135H99.15ZM108.224 128.552V122.135H111.898V128.552H108.224ZM117.302 122.135V128.552H120.975V122.135H117.302ZM99.15 138.471V132.054H102.824V138.471H99.15ZM108.224 132.054V138.471H111.898V132.054H108.224ZM117.302 138.471V132.054H120.975V138.471H117.302ZM99.15 142.102V148.519H102.824V142.102H99.15ZM108.224 148.519V142.102H111.898V148.519H108.224ZM117.302 142.102V148.519H120.975V142.102H117.302ZM99.15 157.594V151.177H102.824V157.594H99.15ZM108.224 151.177V157.594H111.898V151.177H108.224ZM117.302 157.594V151.177H120.975V157.594H117.302ZM95.128 94.71H127.12L114.032 75.8062L95.128 94.71ZM153.303 94.71H131.588L117.787 74.7762L136.436 74.713L153.303 94.71Z" fill="#F83207"/>
</svg>
