<svg xmlns="http://www.w3.org/2000/svg" width="150" height="41" fill="none"><g clip-path="url(#a)"><path fill="#F83207" d="M38.45 2.582C36.922 1.056 32.928 0 27.8 0 13.037.04 0 6.573 0 21.595 0 33.45 7.557 41 19.42 41c15.036 0 21.575-13.028 21.614-27.777 0-5.125-1.057-9.115-2.584-10.64Zm-4.66 7.59c-1.605 0-2.936-1.33-2.936-2.934s1.33-2.935 2.936-2.935c.744 0 1.527.353 2.075.861.51.509.822 1.291.822 2.074 0 1.604-1.291 2.934-2.897 2.934ZM140.603 25.82c-1.135 0-1.879-.666-1.879-1.722 0-1.134.744-1.878 2.075-1.995l2.466-.196v1.33c0 1.526-1.096 2.583-2.662 2.583Zm3.171.234h.235l.431 3.913H150V17.683c0-4.93-2.858-7.433-8.614-7.433s-8.771 2.543-8.457 7.16h5.951c0-1.487.705-2.23 2.193-2.23s2.192.743 2.192 2.268v.979l-4.189.39c-4.581.431-7.087 2.583-7.087 6.065s2.467 5.516 5.951 5.516c3.133 0 5.13-1.604 5.834-4.343ZM19.773 33.958c-7.988 0-12.725-4.616-12.725-12.284 0-7.668 4.66-12.441 12.725-12.441 6.695 0 11.08 3.325 11.746 8.841h-6.695c-.47-2.308-2.232-3.52-5.208-3.52-3.993 0-5.99 2.386-5.99 7.159 0 4.499 2.036 6.924 5.951 6.924 2.976 0 5.168-1.212 5.443-3.52h-6.5v-3.443h12.725c.078 7.511-3.367 12.284-11.472 12.284Zm40.838-9.194h.235v2.23c0 2.817-1.097 4.108-3.524 4.108-1.88 0-2.937-.743-3.172-2.23h-5.99c.274 4.46 3.524 6.886 9.162 6.886 6.578 0 10.258-3.208 10.258-8.999V10.642h-5.168l-.587 4.382h-.235c-.705-3.208-2.898-4.812-5.482-4.812-4.933.039-8.144 3.56-8.144 9.037s3.132 9.037 7.713 9.037c2.31 0 4.268-1.173 4.934-3.52Zm14.878-8.88h-.235l-.626-5.243h-5.012v19.327h6.735v-10.25c0-2.27 1.292-3.443 3.798-3.443.665 0 1.214.039 1.918.195v-6.024a4.694 4.694 0 0 0-1.41-.196c-3.327 0-4.815 2.582-5.168 5.634Zm45.302 14.084V20.93h.235l4.385 9.038h6.774l.156-.04c0-.469-.117-.782-.704-1.877l-4.542-8.373 4.502-7.002c.509-.744.744-1.409.744-2.035h-6.852l-4.463 8.685h-.235V7.16h-6.695v22.809h6.695Zm-11.981.352c.9 0 1.997-.118 3.719-.783v-4.85c-1.174.156-1.331.195-1.683.195-1.527 0-2.232-.665-2.232-2.191v-6.573h3.68v-5.477h-3.68V7.16h-6.735v16.588c0 4.304 2.389 6.573 6.931 6.573Zm-18.09-4.5c-1.135 0-1.879-.665-1.879-1.72 0-1.135.744-1.879 2.075-1.996l2.467-.196v1.33c0 1.526-1.096 2.583-2.663 2.583Zm3.172.235h.235l.43 3.913h5.56V17.683c0-4.93-2.858-7.433-8.614-7.433-5.755 0-8.77 2.543-8.457 7.16h5.952c0-1.487.704-2.23 2.192-2.23 1.488 0 2.193.743 2.193 2.268v.979l-4.19.39c-4.58.431-7.087 2.583-7.087 6.065s2.467 5.516 5.952 5.516c3.132 0 5.13-1.604 5.834-4.343Zm-36.179-2.66c-1.918.04-2.819-1.291-2.819-4.147 0-2.856.862-4.147 2.82-4.186 2.114-.04 3.132 1.33 3.132 4.186s-.98 4.108-3.133 4.147Z"/></g><defs><clipPath id="a"><path fill="#fff" d="M0 0h150v41H0z"/></clipPath></defs></svg>