<svg xmlns="http://www.w3.org/2000/svg" width="181" height="180" fill="none"><path fill="#F83207" fill-rule="evenodd" d="M83.26 86.33H50.13l-30.5 28.13H3.26v26.88c0 7.45 6.03 13.48 13.48 13.48h4.92a18.05 18.05 0 0 0 33.6 0h50.72a18.05 18.05 0 0 0 33.59 0h31.68c4.1 0 7.27-3.47 7.27-7.55a7.61 7.61 0 0 0-4.05-6.78l-4.7-15.3a14.55 14.55 0 0 0-13.91-10.26h-20.19l-16.61-22.66a14.55 14.55 0 0 0-11.73-5.94H83.26Zm-27 64.82h48.7a18.04 18.04 0 0 1 33.72-11.44h16.45L151 126.27a10.88 10.88 0 0 0-10.4-7.67H70v-.14l-28.96.11a4.67 4.67 0 0 1-3.18-8.11l18-16.5h59.86a10.87 10.87 0 0 0-8.38-3.96H51.56l-30.5 28.14H6.93v21.57h15.32v.57a18.04 18.04 0 0 1 32.12-.57h17.45v3.67H55.85a18.06 18.06 0 0 1 .41 7.77Zm-35.19-7.77H7.14a9.81 9.81 0 0 0 9.6 7.77h3.91a18.16 18.16 0 0 1 .42-7.77Zm149.32-3.67h-11.41l-4.47-14.52c-.8-2.6-2.3-4.86-4.24-6.6h5.59c4.77 0 8.99 3.12 10.4 7.69l4.13 13.43Zm-29.57 8.51c0-1.67-.23-3.3-.66-4.84h31.1c1.9 0 3.59 1.65 3.59 3.89 0 2.23-1.7 3.88-3.6 3.88h-30.67c.16-.95.24-1.93.24-2.93Zm-9.7-33.3-12.69-17.3h-12.5l12.59 17.3h12.6Zm-57.46-17.3h27.73l12.58 17.3H73.66v-17.3Zm-3.67 17.16V97.63h-12.7l-16.96 15.54a1 1 0 0 0 .68 1.74l28.98-.12Zm38.41 33.44a14.37 14.37 0 1 1 28.74 0 14.37 14.37 0 0 1-28.74 0Zm-84.31 0a14.37 14.37 0 1 1 28.74 0 14.37 14.37 0 0 1-28.74 0Z" clip-rule="evenodd"/></svg>
