<svg width="50" height="26" viewBox="0 0 50 26" fill="none" xmlns="http://www.w3.org/2000/svg">
<path d="M2.26328 8V5.87466H2.81161C3.55922 5.87466 4.13573 5.70436 4.54114 5.36376C4.94655 5.02316 5.14925 4.53133 5.14925 3.88828C5.14925 3.26975 4.95891 2.8045 4.57824 2.49251C4.19757 2.18052 3.64167 2.02452 2.91056 2.02452H0.985207V8H2.26328ZM2.68381 4.83651H2.26328V3.06267H2.8446C3.19366 3.06267 3.44996 3.13351 3.6135 3.2752C3.77704 3.41689 3.85881 3.63624 3.85881 3.93324C3.85881 4.22752 3.76124 4.45164 3.56609 4.60559C3.37094 4.75954 3.07685 4.83651 2.68381 4.83651ZM6.90557 8L7.34259 6.57766H9.54005L9.97707 8H11.3541L9.21847 2H7.65592L5.52855 8H6.90557ZM9.23496 5.51499H7.66417C8.09294 4.13896 8.35268 3.27657 8.44338 2.92779C8.46537 3.02589 8.50179 3.1594 8.55264 3.32834C8.60348 3.49727 8.83093 4.22616 9.23496 5.51499ZM13.3908 8V5.70708H14.071L15.5099 8H16.9281C16.6533 7.60763 16.0623 6.73978 15.1553 5.39646C15.5126 5.24114 15.7889 5.02657 15.984 4.75272C16.1792 4.47888 16.2767 4.16621 16.2767 3.81471C16.2767 3.21253 16.0802 2.76362 15.6872 2.46798C15.2941 2.17234 14.6881 2.02452 13.869 2.02452H12.1127V8H13.3908ZM13.803 4.67711H13.3908V3.06267H13.7783C14.1906 3.06267 14.495 3.12262 14.6915 3.24251C14.888 3.3624 14.9863 3.56403 14.9863 3.84741C14.9863 4.13352 14.8901 4.34332 14.6977 4.47684C14.5053 4.61035 14.2071 4.67711 13.803 4.67711ZM20.012 8V3.07902H21.6488V2.02452H17.0972V3.07902H18.7339V8H20.012ZM23.7184 8V5.18801C23.7184 4.84741 23.6923 4.27793 23.6401 3.47956H23.6772L26.2993 8H27.9237V2.02452H26.7734V4.85286C26.7734 5.17439 26.794 5.72343 26.8353 6.5H26.8064L24.1884 2.02452H22.5764V8H23.7184ZM32.9123 8V6.95368H30.719V5.41281H32.7598V4.37466H30.719V3.06267H32.9123V2.02452H29.4409V8H32.9123ZM35.4478 8V5.70708H36.1281L37.567 8H38.9852C38.7104 7.60763 38.1194 6.73978 37.2124 5.39646C37.5697 5.24114 37.8459 5.02657 38.0411 4.75272C38.2362 4.47888 38.3338 4.16621 38.3338 3.81471C38.3338 3.21253 38.1373 2.76362 37.7442 2.46798C37.3512 2.17234 36.7451 2.02452 35.9261 2.02452H34.1698V8H35.4478ZM35.8601 4.67711H35.4478V3.06267H35.8354C36.2477 3.06267 36.5521 3.12262 36.7486 3.24251C36.9451 3.3624 37.0434 3.56403 37.0434 3.84741C37.0434 4.13352 36.9472 4.34332 36.7548 4.47684C36.5624 4.61035 36.2641 4.67711 35.8601 4.67711Z" fill="#1E1E1E"/>
<g clip-path="url(#clip0_2009_158)">
<path d="M44.5685 3.74999H45.4019V2.91666H44.5685M44.9852 8.33333C43.1477 8.33333 41.6519 6.8375 41.6519 5C41.6519 3.1625 43.1477 1.66666 44.9852 1.66666C46.8227 1.66666 48.3185 3.1625 48.3185 5C48.3185 6.8375 46.8227 8.33333 44.9852 8.33333ZM44.9852 0.833328C44.438 0.833328 43.8962 0.941102 43.3907 1.1505C42.8852 1.35989 42.4258 1.66681 42.0389 2.05372C41.2575 2.83512 40.8185 3.89493 40.8185 5C40.8185 6.10506 41.2575 7.16487 42.0389 7.94627C42.4258 8.33318 42.8852 8.6401 43.3907 8.84949C43.8962 9.05889 44.438 9.16666 44.9852 9.16666C46.0903 9.16666 47.1501 8.72767 47.9315 7.94627C48.7129 7.16487 49.1519 6.10506 49.1519 5C49.1519 4.45282 49.0441 3.911 48.8347 3.40548C48.6253 2.89996 48.3184 2.44063 47.9315 2.05372C47.5446 1.66681 47.0852 1.35989 46.5797 1.1505C46.0742 0.941102 45.5324 0.833328 44.9852 0.833328ZM44.5685 7.08333H45.4019V4.58333H44.5685V7.08333Z" fill="#00102E" fill-opacity="0.6"/>
</g>
<path fill-rule="evenodd" clip-rule="evenodd" d="M12.9852 20C12.9852 23.3137 10.2989 26 6.98527 26C3.6715 26 0.985207 23.3137 0.985207 20C0.985207 16.6863 3.6715 14 6.98527 14C10.2989 14 12.9852 16.6863 12.9852 20Z" fill="#FFD200"/>
<path fill-rule="evenodd" clip-rule="evenodd" d="M18.5683 23.173C16.7885 23.173 15.3943 21.7789 15.3943 19.9989C15.3943 18.2193 16.7885 16.825 18.5683 16.825C20.3548 16.825 21.7541 18.2193 21.7541 19.9989C21.7541 21.7789 20.3548 23.173 18.5683 23.173ZM18.5683 18.3694C17.6448 18.3694 16.9745 19.0546 16.9745 19.9989C16.9745 20.9431 17.6448 21.6287 18.5683 21.6287C19.4987 21.6287 20.174 20.9431 20.174 19.9989C20.174 19.0546 19.4987 18.3694 18.5683 18.3694Z" fill="#1E1E1E"/>
<path fill-rule="evenodd" clip-rule="evenodd" d="M38.2414 23.111C37.5436 23.111 37.0176 22.9377 36.6782 22.5956C36.3426 22.2573 36.1792 21.7626 36.1792 21.0834V18.5012H35.3214V17.002H36.1875L36.1904 15.6006L37.7596 15.2252V17.002H39.3228V18.5012H37.7596V21.1026C37.7596 21.3378 37.8947 21.6378 38.5391 21.6378C38.8219 21.6378 39.3068 21.5784 39.3068 21.5784V22.9868C38.9444 23.0646 38.5566 23.111 38.2414 23.111Z" fill="#1E1E1E"/>
<path fill-rule="evenodd" clip-rule="evenodd" d="M32.0521 23.173C30.1129 23.173 28.7586 21.8678 28.7586 19.9989C28.7586 18.1599 30.0935 16.825 31.9326 16.825C33.667 16.825 34.9751 18.1895 34.9751 19.9989C34.9751 20.2041 34.9565 20.4005 34.915 20.6357L34.9121 20.6517H30.4165C30.6185 21.3514 31.2065 21.7362 32.0759 21.7362C32.7935 21.7362 33.1947 21.3785 33.3339 21.2247L34.6309 21.9454C34.0475 22.7483 33.1555 23.173 32.0521 23.173ZM33.3899 19.4181C33.2178 18.6861 32.6747 18.2499 31.9326 18.2499C31.1358 18.2499 30.5755 18.6753 30.3918 19.4181H33.3899Z" fill="#1E1E1E"/>
<path fill-rule="evenodd" clip-rule="evenodd" d="M26.4856 23.0057V19.5089C26.4856 18.7505 26.0506 18.2977 25.322 18.2977C24.4991 18.2977 24.0551 18.989 24.0271 19.1297V23.0057H22.4467V17.0019H23.8294V17.6189C24.1982 17.1063 25.0182 16.825 25.7882 16.825C26.4278 16.825 27.0024 17.0547 27.4062 17.4717C27.8378 17.9175 28.0659 18.5559 28.0659 19.3179V23.0057H26.4856Z" fill="#1E1E1E"/>
<defs>
<clipPath id="clip0_2009_158">
<rect width="10" height="10" fill="white" transform="translate(39.9852)"/>
</clipPath>
</defs>
</svg>
