
<svg width="181" height="180" viewBox="0 0 181 180" fill="none" xmlns="http://www.w3.org/2000/svg">
  <path fill-rule="evenodd" clip-rule="evenodd" d="M137.358 58.7755C115.598 58.7755 97.9572 76.4159 97.9572 98.1764C97.9572 119.643 115.124 137.1 136.478 137.568L136.58 88.6563L140.253 88.6639L140.223 103.289L151.921 91.5909L154.519 94.1884L140.212 108.495L140.179 124.481L151.921 112.738L154.519 115.336L140.168 129.686L140.152 137.48C160.608 136.047 176.759 118.998 176.759 98.1764C176.759 76.4159 159.119 58.7755 137.358 58.7755ZM140.144 141.162C162.635 139.726 180.432 121.03 180.432 98.1764C180.432 74.3871 161.147 55.1021 137.358 55.1021C116.771 55.1021 99.558 69.544 95.2963 88.8492L68.0463 88.9406L39.4812 117.506V163.785H43.1547V120.103H86.0067V164.883H89.6802V120.103H100.274C107.635 132.525 121.059 140.93 136.47 141.242L136.418 166.221L140.092 166.228L140.144 141.162ZM45.7523 116.43H84.337L68.5524 93.6297L45.7523 116.43ZM72.3073 92.5998L88.8049 116.43H98.3312C95.7345 110.888 94.2837 104.701 94.2837 98.1764C94.2837 96.2608 94.4087 94.3744 94.6511 92.5248L72.3073 92.5998Z" fill="#F83207"/>
  <path fill-rule="evenodd" clip-rule="evenodd" d="M5.09193 80.2009C5.09193 68.856 14.2886 59.6613 25.634 59.6613C36.979 59.6613 46.1736 68.858 46.1736 80.2009H49.8471C49.8471 66.8295 39.008 55.9878 25.634 55.9878C12.2603 55.9878 1.41846 66.8267 1.41846 80.2009H5.09193ZM96.9269 131.233H115.153V134.906H100.6V148.151H123.89V139.414H127.563V151.824H96.9269V131.233ZM75.2241 131.233H54.6326V151.825H75.2241V131.233ZM58.3061 148.151V134.907H71.5507V148.151H58.3061ZM158.459 166.224H39.9899V162.551H158.459V166.224ZM28.5273 134.374V87.7739H24.8539V102.372L17.4165 94.9344L14.8189 97.5319L24.8539 107.567V120.175L17.4165 112.738L14.8189 115.336L24.8539 125.371V134.562C13.87 134.152 5.09193 125.121 5.09193 114.037H1.41846C1.41846 127.15 11.8412 137.826 24.8539 138.238V166.02H28.5273V138.078C33.9848 137.429 38.8854 134.962 42.6058 131.306L40.031 128.686C36.9709 131.693 32.978 133.747 28.5273 134.374Z" fill="#F83207"/>
  <path fill-rule="evenodd" clip-rule="evenodd" d="M1.41846 114.037V80.2007H5.09193V114.037H1.41846ZM46.1736 111.922V80.2007H49.8471V111.922H46.1736ZM41.7674 162.551H14.2756V166.224H41.7674V162.551Z" fill="#F83207"/>
</svg>
