<svg xmlns="http://www.w3.org/2000/svg" width="181" height="180" fill="none"><path fill="#F83207" fill-rule="evenodd" d="M132.7 84.3h-88V38h88v46.3Zm-3.6-3.7v-39H48.4v39h80.7ZM23.9 77.8l.5.3a39.7 39.7 0 0 1 1.2 64.2v4.3h7.9l-.4 2.1-3.2 17.3-.2 1.5H17.2l-.3-1.5-3.1-17.3-.4-2.1h8.5V143a39.7 39.7 0 0 1 0-65l.5-.3h1.5Zm1.7 59.7v-39h-3.7v8.1l-5.8-5.8-2.6 2.6 8.4 8.4v6.9l-5.6-5.6-2.6 2.6L22 124v14.6a36 36 0 0 1 1.3-56.7 36 36 0 0 1 2.4 55.7Zm32-26v-5c0-4.2 3.6-7.8 8-7.8h81c4.3 0 7.8 3.6 7.8 7.9v6a8.9 8.9 0 0 0-6.5 8.5V135.9H65.3V120c-.2-4.3-3.4-8-7.6-8.7Zm89-16.4H65c-6 .3-10.7 5.1-10.9 11v5.6a9.1 9.1 0 0 0-6.5 8.4v27c0 5.8 4.5 10.6 10.2 11.2v.1h1v7.6h3.7v-7.6h10.2v7.6h3.7v-7.6h71.6v7.6h3.7v-7.6H160.5v7.6h3.6v-7.6h1c6 0 11-4.5 11.5-10.3v-27c0-4.6-3.5-8.3-8-8.7v-6A11.5 11.5 0 0 0 157 95.1h-10.5Zm0 59.6h8.2c4-.3 7.2-3.7 7.2-7.8v-25.7a5.2 5.2 0 1 0-10.4 0v18.4H62v-.3h-.5v-18.9c0-2.9-2.3-5.3-5.2-5.4-3 0-5.3 2.5-5.3 5.4V147c0 4.3 3.5 7.8 7.9 7.8h87.6Zm18.6 0h-2.6c1.7-1.8 2.8-4 3-6.6h.1v-27c0-2-.7-3.7-1.7-5h3.8c2.9 0 5.2 2.2 5.2 5.1V147c0 4.3-3.5 7.8-7.8 7.8Zm-.3-48.1v5.7h-6.8v-5.9c0-3-1.2-5.6-3-7.7h2c4.3 0 7.8 3.5 7.8 7.9ZM20.2 163.8l-2.4-13.6H29l-2.5 13.6h-6.4Zm103-87.3h2V46H52.3v30.4h70.8Zm-1.8-26.7v23H56.1v-23h65.3Z" clip-rule="evenodd"/></svg>
