<svg width="24" height="24" viewBox="0 0 24 24" fill="none" xmlns="http://www.w3.org/2000/svg">
<path fill-rule="evenodd" clip-rule="evenodd" d="M14.5 6.44444C14.5 5.11681 13.4052 4 12 4C10.5948 4 9.5 5.11681 9.5 6.44444C9.5 7.77208 10.5948 8.88889 12 8.88889C13.4052 8.88889 14.5 7.77208 14.5 6.44444ZM13.8753 15.2227C13.2532 15.1554 12.6283 15.1111 12 15.1111C11.3717 15.1111 10.7468 15.1554 10.1247 15.2227L7.97926 15.6547C6.84147 15.9922 6.01952 16.4231 5.51994 16.8382C5.01207 17.2603 5 17.5131 5 17.5556V20H19V17.5556C19 17.5091 18.9866 17.2564 18.4829 16.8371C17.9858 16.4233 17.165 15.9925 16.0219 15.655L13.8753 15.2227ZM14.1825 13.2444C13.485 13.1667 12.7537 13.1111 12 13.1111C11.2463 13.1111 10.515 13.1667 9.8175 13.2444L7.5 13.7111C4.81125 14.4889 3 15.8889 3 17.5556V22H21V17.5556C21 15.8889 19.2 14.4889 16.5 13.7111L14.1825 13.2444ZM16.5 6.44444C16.5 3.98889 14.4862 2 12 2C9.51375 2 7.5 3.98889 7.5 6.44444C7.5 8.9 9.51375 10.8889 12 10.8889C14.4862 10.8889 16.5 8.9 16.5 6.44444Z" fill="#000"/>
</svg>
